<svg id="Capa_1" data-name="Capa 1" xmlns="http://www.w3.org/2000/svg" xmlns:xlink="http://www.w3.org/1999/xlink" viewBox="0 0 2578.73 339.21"><defs><style>.cls-1{font-size:190.2px;font-family:GreekFreakRegular, Greek-Freak;}.cls-1,.cls-3{fill:#1d1d1b;}.cls-2{letter-spacing:-0.02em;}.cls-3{stroke:#1d1d1b;stroke-width:17.67px;}.cls-3,.cls-5{stroke-miterlimit:10;}.cls-4{fill:url(#Degradado_sin_nombre_33);}.cls-5{fill:none;stroke-width:18.21px;stroke:url(#Degradado_sin_nombre_33-10);}.cls-6{fill:#d43230;}</style><linearGradient id="Degradado_sin_nombre_33" x1="-2391.11" y1="730.57" x2="-202.99" y2="730.57" gradientTransform="translate(1526.4 23.04)" gradientUnits="userSpaceOnUse"><stop offset="0" stop-color="#57539f"/><stop offset="0.28" stop-color="#5553a0"/><stop offset="0.67" stop-color="#b65299"/><stop offset="0.89" stop-color="#ae4a96"/><stop offset="1" stop-color="#421f52"/></linearGradient><linearGradient id="Degradado_sin_nombre_33-10" x1="-2399.95" y1="730.57" x2="-186.3" y2="730.57" xlink:href="#Degradado_sin_nombre_33"/></defs><text class="cls-1" transform="translate(2180.75 268.09) scale(1.07 1)">.<tspan class="cls-2" x="40.32" y="0">c</tspan><tspan x="133.52" y="0">om</tspan></text><path class="cls-3" d="M-864.71,877.06l164.59-240.73V635H-850.63V602.88h200.24V626.2L-814.1,866.05v1.32h165.91V899.5H-864.71Z" transform="translate(873.82 -593.77)"/><path class="cls-3" d="M-414.94,791.24c0,78.77-54.57,113.1-106.06,113.1-57.65,0-102.1-42.25-102.1-109.58,0-71.3,46.65-113.1,105.62-113.1C-456.31,681.66-414.94,726.11-414.94,791.24Zm-169,2.2c0,46.65,26.85,81.86,64.7,81.86,37,0,64.69-34.77,64.69-82.74,0-36.09-18-81.86-63.81-81.86S-583.94,753-583.94,793.44Z" transform="translate(873.82 -593.77)"/><path class="cls-3" d="M-366.09,744.15c0-22-.44-40-1.76-57.65h34.33l2.2,35.2h.88c10.56-20.24,35.2-40,70.41-40,29.49,0,75.26,17.6,75.26,90.65V899.5H-223.5V776.72c0-34.33-12.77-62.94-49.29-62.94-25.53,0-45.33,18.05-51.93,39.61-1.76,4.84-2.64,11.44-2.64,18V899.5h-38.73Z" transform="translate(873.82 -593.77)"/><path class="cls-3" d="M-3.9,899.5-7,872.66H-8.3c-11.88,16.72-34.77,31.68-65.13,31.68-43.13,0-65.14-30.36-65.14-61.17,0-51.49,45.77-79.66,128.07-79.22v-4.4c0-17.6-4.84-49.29-48.41-49.29-19.81,0-40.49,6.16-55.45,15.85l-8.8-25.53c17.6-11.44,43.12-18.92,70-18.92,65.13,0,81,44.45,81,87.13v79.66c0,18.48.88,36.53,3.52,51ZM-9.62,790.8c-42.25-.88-90.22,6.6-90.22,48,0,25.08,16.72,37,36.53,37,27.72,0,45.33-17.61,51.49-35.65a40.41,40.41,0,0,0,2.2-12.32Z" transform="translate(873.82 -593.77)"/><path class="cls-3" d="M234.19,899.5,137.37,602.88h41.36L224.94,749c12.77,40,23.77,76.14,31.69,110.9h.88c8.36-34.32,20.68-71.73,33.89-110.46l50.17-146.55H382.5L276.43,899.5Z" transform="translate(873.82 -593.77)"/><path class="cls-3" d="M640.39,753c0-25.08-.44-46.65-1.76-66.45h33.89l1.32,41.81h1.76c9.68-28.61,33-46.65,59-46.65a41.88,41.88,0,0,1,11,1.32V719.5a58.17,58.17,0,0,0-13.2-1.32c-27.28,0-46.65,20.69-51.93,49.73A109.22,109.22,0,0,0,678.68,786V899.5H640.39Z" transform="translate(873.82 -593.77)"/><path class="cls-3" d="M841.51,625.32V686.5H897V716H841.51V830.85c0,26.4,7.48,41.37,29,41.37A85.64,85.64,0,0,0,893,869.57l1.76,29c-7.48,3.08-19.37,5.28-34.33,5.28-18,0-32.56-5.72-41.81-16.28-11-11.44-15-30.37-15-55.45V716h-33V686.5h33v-51Z" transform="translate(873.82 -593.77)"/><path class="cls-3" d="M959.45,800c.88,52.37,34.33,73.94,73.06,73.94,27.72,0,44.45-4.85,59-11l6.6,27.73c-13.64,6.16-37,13.2-70.86,13.2-65.57,0-104.74-43.13-104.74-107.38s37.85-114.86,99.9-114.86c69.54,0,88,61.17,88,100.34a146,146,0,0,1-1.32,18ZM1073,772.31c.44-24.64-10.12-62.93-53.69-62.93-39.17,0-56.33,36.09-59.41,62.93Z" transform="translate(873.82 -593.77)"/><path class="cls-3" d="M1175.1,686.5l30.36,45.77c7.92,11.88,14.53,22.88,21.57,34.76h1.32c7-12.76,14.08-23.76,21.12-35.2l29.93-45.33h41.81l-72.62,103,74.82,110h-44l-31.25-48c-8.36-12.32-15.4-24.2-22.88-37h-.88c-7.05,12.77-14.53,24.21-22.45,37l-30.8,48h-42.69l75.69-108.7L1132,686.5Z" transform="translate(873.82 -593.77)"/><path class="cls-4" d="M-864.71,877.06l164.59-240.73V635H-850.63V602.88h200.24V626.2L-814.1,866.05v1.32h165.91V899.5H-864.71Z" transform="translate(873.82 -593.77)"/><path class="cls-4" d="M-414.94,791.24c0,78.77-54.57,113.1-106.06,113.1-57.65,0-102.1-42.25-102.1-109.58,0-71.3,46.65-113.1,105.62-113.1C-456.31,681.66-414.94,726.11-414.94,791.24Zm-169,2.2c0,46.65,26.85,81.86,64.7,81.86,37,0,64.69-34.77,64.69-82.74,0-36.09-18-81.86-63.81-81.86S-583.94,753-583.94,793.44Z" transform="translate(873.82 -593.77)"/><path class="cls-4" d="M-366.09,744.15c0-22-.44-40-1.76-57.65h34.33l2.2,35.2h.88c10.56-20.24,35.2-40,70.41-40,29.49,0,75.26,17.6,75.26,90.65V899.5H-223.5V776.72c0-34.33-12.77-62.94-49.29-62.94-25.53,0-45.33,18.05-51.93,39.61-1.76,4.84-2.64,11.44-2.64,18V899.5h-38.73Z" transform="translate(873.82 -593.77)"/><path class="cls-4" d="M-3.9,899.5-7,872.66H-8.3c-11.88,16.72-34.77,31.68-65.13,31.68-43.13,0-65.14-30.36-65.14-61.17,0-51.49,45.77-79.66,128.07-79.22v-4.4c0-17.6-4.84-49.29-48.41-49.29-19.81,0-40.49,6.16-55.45,15.85l-8.8-25.53c17.6-11.44,43.12-18.92,70-18.92,65.13,0,81,44.45,81,87.13v79.66c0,18.48.88,36.53,3.52,51ZM-9.62,790.8c-42.25-.88-90.22,6.6-90.22,48,0,25.08,16.72,37,36.53,37,27.72,0,45.33-17.61,51.49-35.65a40.41,40.41,0,0,0,2.2-12.32Z" transform="translate(873.82 -593.77)"/><path class="cls-4" d="M234.19,899.5,137.37,602.88h41.36L224.94,749c12.77,40,23.77,76.14,31.69,110.9h.88c8.36-34.32,20.68-71.73,33.89-110.46l50.17-146.55H382.5L276.43,899.5Z" transform="translate(873.82 -593.77)"/><path class="cls-4" d="M640.39,753c0-25.08-.44-46.65-1.76-66.45h33.89l1.32,41.81h1.76c9.68-28.61,33-46.65,59-46.65a41.88,41.88,0,0,1,11,1.32V719.5a58.17,58.17,0,0,0-13.2-1.32c-27.28,0-46.65,20.69-51.93,49.73A109.22,109.22,0,0,0,678.68,786V899.5H640.39Z" transform="translate(873.82 -593.77)"/><path class="cls-4" d="M841.51,625.32V686.5H897V716H841.51V830.85c0,26.4,7.48,41.37,29,41.37A85.64,85.64,0,0,0,893,869.57l1.76,29c-7.48,3.08-19.37,5.28-34.33,5.28-18,0-32.56-5.72-41.81-16.28-11-11.44-15-30.37-15-55.45V716h-33V686.5h33v-51Z" transform="translate(873.82 -593.77)"/><path class="cls-4" d="M959.45,800c.88,52.37,34.33,73.94,73.06,73.94,27.72,0,44.45-4.85,59-11l6.6,27.73c-13.64,6.16-37,13.2-70.86,13.2-65.57,0-104.74-43.13-104.74-107.38s37.85-114.86,99.9-114.86c69.54,0,88,61.17,88,100.34a146,146,0,0,1-1.32,18ZM1073,772.31c.44-24.64-10.12-62.93-53.69-62.93-39.17,0-56.33,36.09-59.41,62.93Z" transform="translate(873.82 -593.77)"/><path class="cls-4" d="M1175.1,686.5l30.36,45.77c7.92,11.88,14.53,22.88,21.57,34.76h1.32c7-12.76,14.08-23.76,21.12-35.2l29.93-45.33h41.81l-72.62,103,74.82,110h-44l-31.25-48c-8.36-12.32-15.4-24.2-22.88-37h-.88c-7.05,12.77-14.53,24.21-22.45,37l-30.8,48h-42.69l75.69-108.7L1132,686.5Z" transform="translate(873.82 -593.77)"/><path class="cls-5" d="M-864.71,877.06l164.59-240.73V635H-850.63V602.88h200.24V626.2L-814.1,866.05v1.32h165.91V899.5H-864.71Z" transform="translate(873.82 -593.77)"/><path class="cls-5" d="M-414.94,791.24c0,78.77-54.57,113.1-106.06,113.1-57.65,0-102.1-42.25-102.1-109.58,0-71.3,46.65-113.1,105.62-113.1C-456.31,681.66-414.94,726.11-414.94,791.24Zm-169,2.2c0,46.65,26.85,81.86,64.7,81.86,37,0,64.69-34.77,64.69-82.74,0-36.09-18-81.86-63.81-81.86S-583.94,753-583.94,793.44Z" transform="translate(873.82 -593.77)"/><path class="cls-5" d="M-366.09,744.15c0-22-.44-40-1.76-57.65h34.33l2.2,35.2h.88c10.56-20.24,35.2-40,70.41-40,29.49,0,75.26,17.6,75.26,90.65V899.5H-223.5V776.72c0-34.33-12.77-62.94-49.29-62.94-25.53,0-45.33,18.05-51.93,39.61-1.76,4.84-2.64,11.44-2.64,18V899.5h-38.73Z" transform="translate(873.82 -593.77)"/><path class="cls-5" d="M-3.9,899.5-7,872.66H-8.3c-11.88,16.72-34.77,31.68-65.13,31.68-43.13,0-65.14-30.36-65.14-61.17,0-51.49,45.77-79.66,128.07-79.22v-4.4c0-17.6-4.84-49.29-48.41-49.29-19.81,0-40.49,6.16-55.45,15.85l-8.8-25.53c17.6-11.44,43.12-18.92,70-18.92,65.13,0,81,44.45,81,87.13v79.66c0,18.48.88,36.53,3.52,51ZM-9.62,790.8c-42.25-.88-90.22,6.6-90.22,48,0,25.08,16.72,37,36.53,37,27.72,0,45.33-17.61,51.49-35.65a40.41,40.41,0,0,0,2.2-12.32Z" transform="translate(873.82 -593.77)"/><path class="cls-5" d="M234.19,899.5,137.37,602.88h41.36L224.94,749c12.77,40,23.77,76.14,31.69,110.9h.88c8.36-34.32,20.68-71.73,33.89-110.46l50.17-146.55H382.5L276.43,899.5Z" transform="translate(873.82 -593.77)"/><path class="cls-5" d="M640.39,753c0-25.08-.44-46.65-1.76-66.45h33.89l1.32,41.81h1.76c9.68-28.61,33-46.65,59-46.65a41.88,41.88,0,0,1,11,1.32V719.5a58.17,58.17,0,0,0-13.2-1.32c-27.28,0-46.65,20.69-51.93,49.73A109.22,109.22,0,0,0,678.68,786V899.5H640.39Z" transform="translate(873.82 -593.77)"/><path class="cls-5" d="M841.51,625.32V686.5H897V716H841.51V830.85c0,26.4,7.48,41.37,29,41.37A85.64,85.64,0,0,0,893,869.57l1.76,29c-7.48,3.08-19.37,5.28-34.33,5.28-18,0-32.56-5.72-41.81-16.28-11-11.44-15-30.37-15-55.45V716h-33V686.5h33v-51Z" transform="translate(873.82 -593.77)"/><path class="cls-5" d="M959.45,800c.88,52.37,34.33,73.94,73.06,73.94,27.72,0,44.45-4.85,59-11l6.6,27.73c-13.64,6.16-37,13.2-70.86,13.2-65.57,0-104.74-43.13-104.74-107.38s37.85-114.86,99.9-114.86c69.54,0,88,61.17,88,100.34a146,146,0,0,1-1.32,18ZM1073,772.31c.44-24.64-10.12-62.93-53.69-62.93-39.17,0-56.33,36.09-59.41,62.93Z" transform="translate(873.82 -593.77)"/><path class="cls-5" d="M1175.1,686.5l30.36,45.77c7.92,11.88,14.53,22.88,21.57,34.76h1.32c7-12.76,14.08-23.76,21.12-35.2l29.93-45.33h41.81l-72.62,103,74.82,110h-44l-31.25-48c-8.36-12.32-15.4-24.2-22.88-37h-.88c-7.05,12.77-14.53,24.21-22.45,37l-30.8,48h-42.69l75.69-108.7L1132,686.5Z" transform="translate(873.82 -593.77)"/><path class="cls-6" d="M618,813.09A119.09,119.09,0,0,0,503.09,697.87a119.49,119.49,0,0,1,21-1.86c1.19,0,2.37,0,3.55.06a118.73,118.73,0,0,1,82.09,36.23,119.25,119.25,0,0,0-107.43-67.45h-1.28A119.1,119.1,0,0,0,383.27,778a118.29,118.29,0,0,1-1.44-18.56c0-1.53,0-3.05.08-4.57a118.82,118.82,0,0,1,38.33-83.08A119.23,119.23,0,0,0,351,780.06c0,1.67,0,3.34.1,5A119.11,119.11,0,0,0,470,899.29a119.79,119.79,0,0,1-24.43,2.5c-1.19,0-2.37,0-3.55,0a118.79,118.79,0,0,1-83.19-37.38,119.24,119.24,0,0,0,108,68.63c1.3,0,2.6,0,3.9-.07a119.36,119.36,0,0,0,110.41-85.18c3.18-10.7,4.92-33.75,4.92-33.75s2.12,14.7,2.12,22.33c0,1.54,0,3.06-.09,4.58a118.81,118.81,0,0,1-40.3,84.86A119.24,119.24,0,0,0,618.09,817C618.09,815.7,618.06,814.39,618,813.09ZM562.64,759.7A73.92,73.92,0,0,0,549,747.89h0a73.66,73.66,0,0,0-34-12.13c-2.36-.23-4.76-.35-7.18-.35a74.24,74.24,0,0,0-13.17,1.17,74.19,74.19,0,0,1,35.07,119.64h0a73.84,73.84,0,0,1-42.92,24.49h0A74.26,74.26,0,0,1,408,842.44a75.43,75.43,0,0,1-3.76-8.28c.87,1.09,1.77,2.15,2.69,3.18a74.28,74.28,0,0,0,21.22,16.45h0A73.88,73.88,0,0,0,455,861.72c2.36.22,4.76.34,7.19.34a74.81,74.81,0,0,0,11.67-.91,74.19,74.19,0,0,1,6.68-143.5c1.16-.24,2.32-.45,3.49-.64h0a74.32,74.32,0,0,1,78.06,40.15s0,0,0,0c.66,1.33,1.29,2.68,1.87,4.05C563.56,760.71,563.1,760.2,562.64,759.7Z" transform="translate(873.82 -593.77)"/></svg>